<svg width="20" height="20" viewBox="0 0 20 20" fill="none" xmlns="http://www.w3.org/2000/svg">
<path opacity="0.84" fill-rule="evenodd" clip-rule="evenodd" d="M10 0C15.523 0 20 4.47701 20 10C20 15.523 15.523 20 10 20C4.47701 20 0 15.523 0 10C0 4.47701 4.47701 0 10 0ZM10 2C5.58159 2 2 5.58159 2 10C2 14.4184 5.58159 18 10 18C14.4184 18 18 14.4184 18 10C18 5.58159 14.4184 2 10 2ZM8.85725 13.7765L5.29325 10.2125C4.90225 9.8215 4.90225 9.1895 5.29325 8.7985C5.68425 8.4075 6.31625 8.4075 6.70725 8.7985L8.85725 10.9485L13.2933 6.5125C13.6842 6.1225 14.3163 6.1225 14.7073 6.5125C15.0983 6.9035 15.0983 7.5365 14.7073 7.9265L8.85725 13.7765Z" fill="#004B4D"/>
</svg>
